<svg width="48" height="48" viewBox="0 0 48 48" fill="none" xmlns="http://www.w3.org/2000/svg">
<g clip-path="url(#clip0_32_1351)">
<path d="M23.9999 15.9999C24.4672 15.999 24.9201 16.1618 25.2799 16.4599L37.2799 26.4599C37.6884 26.7994 37.9452 27.2872 37.994 27.8161C38.0427 28.3449 37.8794 28.8715 37.5399 29.2799C37.2005 29.6884 36.7126 29.9452 36.1838 29.994C35.6549 30.0427 35.1284 29.8794 34.7199 29.5399L23.9999 20.5799L13.2799 29.2199C13.0754 29.3861 12.84 29.5101 12.5873 29.585C12.3346 29.6599 12.0696 29.684 11.8076 29.6562C11.5455 29.6283 11.2916 29.5489 11.0603 29.4225C10.829 29.2962 10.625 29.1254 10.4599 28.9199C10.2768 28.7143 10.1381 28.473 10.0525 28.2113C9.96689 27.9495 9.93628 27.6729 9.96257 27.3988C9.98885 27.1247 10.0715 26.8589 10.2052 26.6182C10.339 26.3775 10.521 26.167 10.7399 25.9999L22.7399 16.3399C23.1101 16.0889 23.5537 15.9692 23.9999 15.9999Z" fill="#2A3538"/>
</g>
<defs>
<clipPath id="clip0_32_1351">
<rect width="48" height="48" fill="white" transform="translate(48 48) rotate(-180)"/>
</clipPath>
</defs>
</svg>
