<svg width="48" height="49" viewBox="0 0 48 49" fill="none" xmlns="http://www.w3.org/2000/svg">
<g clip-path="url(#clip0_32_994)">
<path d="M24.0001 32.1177C23.5328 32.1187 23.0799 31.9559 22.7201 31.6577L10.7201 21.6577C10.3116 21.3183 10.0548 20.8304 10.006 20.3016C9.95726 19.7727 10.1206 19.2462 10.4601 18.8377C10.7995 18.4293 11.2874 18.1725 11.8162 18.1237C12.3451 18.0749 12.8716 18.2383 13.2801 18.5777L24.0001 27.5377L34.7201 18.8977C34.9246 18.7316 35.16 18.6075 35.4127 18.5327C35.6654 18.4578 35.9304 18.4336 36.1924 18.4615C36.4545 18.4894 36.7084 18.5688 36.9397 18.6951C37.171 18.8215 37.375 18.9923 37.5401 19.1977C37.7232 19.4034 37.8619 19.6446 37.9475 19.9064C38.0331 20.1681 38.0637 20.4447 38.0374 20.7189C38.0111 20.993 37.9285 21.2587 37.7948 21.4994C37.661 21.7402 37.479 21.9507 37.2601 22.1177L25.2601 31.7777C24.8899 32.0288 24.4463 32.1485 24.0001 32.1177Z" fill="#2A3538"/>
</g>
<defs>
<clipPath id="clip0_32_994">
<rect width="48" height="48" fill="white" transform="translate(0 0.117676)"/>
</clipPath>
</defs>
</svg>
