<svg width="48" height="48" viewBox="0 0 48 48" fill="none" xmlns="http://www.w3.org/2000/svg">
<path d="M24.0001 32.0001C23.5328 32.001 23.0799 31.8382 22.7201 31.5401L10.7201 21.5401C10.3116 21.2006 10.0548 20.7128 10.006 20.1839C9.95726 19.6551 10.1206 19.1285 10.4601 18.7201C10.7995 18.3116 11.2874 18.0548 11.8162 18.006C12.3451 17.9573 12.8716 18.1206 13.2801 18.4601L24.0001 27.4201L34.7201 18.7801C34.9246 18.6139 35.16 18.4899 35.4127 18.415C35.6654 18.3401 35.9304 18.316 36.1924 18.3438C36.4545 18.3717 36.7084 18.4511 36.9397 18.5775C37.171 18.7038 37.375 18.8746 37.5401 19.0801C37.7232 19.2857 37.8619 19.527 37.9475 19.7887C38.0331 20.0505 38.0637 20.3271 38.0374 20.6012C38.0111 20.8753 37.9285 21.1411 37.7948 21.3818C37.661 21.6225 37.479 21.833 37.2601 22.0001L25.2601 31.6601C24.8899 31.9111 24.4463 32.0308 24.0001 32.0001Z" fill="#6FD945"/>
</svg>
