<svg width="64" height="63" viewBox="0 0 64 63" fill="none" xmlns="http://www.w3.org/2000/svg">
<g filter="url(#filter0_d_32_660)">
<circle cx="21" cy="21" r="19.3065" transform="matrix(4.37114e-08 -1 -1 -4.37114e-08 53 50)" fill="#E4FFD3" stroke="#385626" stroke-width="3.3871"/>
<g clip-path="url(#clip0_32_660)">
<path d="M29.629 28.9998C29.6285 29.0889 29.6456 29.1773 29.6793 29.2598C29.713 29.3424 29.7627 29.4174 29.8255 29.4807L32.5351 32.1904C32.5983 32.2536 32.6733 32.3037 32.7558 32.3379C32.8383 32.3721 32.9268 32.3896 33.0161 32.3896C33.1054 32.3896 33.1939 32.3721 33.2764 32.3379C33.3589 32.3037 33.4339 32.2536 33.4971 32.1904C33.5602 32.1273 33.6103 32.0523 33.6445 31.9698C33.6787 31.8872 33.6963 31.7988 33.6963 31.7095C33.6963 31.6201 33.6787 31.5317 33.6445 31.4492C33.6103 31.3666 33.5602 31.2917 33.4971 31.2285L31.2548 28.9998L33.409 26.7643C33.4783 26.702 33.534 26.626 33.5726 26.5412C33.6112 26.4564 33.6319 26.3645 33.6334 26.2713C33.6348 26.1782 33.6171 26.0857 33.5812 25.9997C33.5453 25.9137 33.492 25.836 33.4247 25.7715C33.3574 25.707 33.2776 25.6571 33.1901 25.6249C33.1027 25.5927 33.0095 25.5789 32.9165 25.5843C32.8235 25.5898 32.7325 25.6144 32.6494 25.6565C32.5663 25.6987 32.4928 25.7576 32.4335 25.8295L29.8187 28.5391C29.6992 28.663 29.6314 28.8277 29.629 28.9998Z" fill="#385626"/>
</g>
</g>
<defs>
<filter id="filter0_d_32_660" x="0.83871" y="0.548387" width="62.3226" height="62.3226" filterUnits="userSpaceOnUse" color-interpolation-filters="sRGB">
<feFlood flood-opacity="0" result="BackgroundImageFix"/>
<feColorMatrix in="SourceAlpha" type="matrix" values="0 0 0 0 0 0 0 0 0 0 0 0 0 0 0 0 0 0 127 0" result="hardAlpha"/>
<feOffset dy="2.70968"/>
<feGaussianBlur stdDeviation="5.08065"/>
<feComposite in2="hardAlpha" operator="out"/>
<feColorMatrix type="matrix" values="0 0 0 0 0.1375 0 0 0 0 0.1375 0 0 0 0 0.1375 0 0 0 0.2 0"/>
<feBlend mode="normal" in2="BackgroundImageFix" result="effect1_dropShadow_32_660"/>
<feBlend mode="normal" in="SourceGraphic" in2="effect1_dropShadow_32_660" result="shape"/>
</filter>
<clipPath id="clip0_32_660">
<rect width="16.2581" height="16.2581" fill="white" transform="matrix(4.37114e-08 -1 -1 -4.37114e-08 40.129 37.1289)"/>
</clipPath>
</defs>
</svg>
