<svg width="24" height="25" viewBox="0 0 24 25" fill="none" xmlns="http://www.w3.org/2000/svg">
<path d="M13.4099 12.4035L17.7099 8.11351C17.8982 7.9252 18.004 7.66981 18.004 7.40351C18.004 7.1372 17.8982 6.88181 17.7099 6.69351C17.5216 6.5052 17.2662 6.39941 16.9999 6.39941C16.7336 6.39941 16.4782 6.5052 16.2899 6.69351L11.9999 10.9935L7.70994 6.69351C7.52164 6.5052 7.26624 6.39941 6.99994 6.39941C6.73364 6.39941 6.47824 6.5052 6.28994 6.69351C6.10164 6.88181 5.99585 7.1372 5.99585 7.40351C5.99585 7.66981 6.10164 7.9252 6.28994 8.11351L10.5899 12.4035L6.28994 16.6935C6.19621 16.7865 6.12182 16.8971 6.07105 17.0189C6.02028 17.1408 5.99414 17.2715 5.99414 17.4035C5.99414 17.5355 6.02028 17.6662 6.07105 17.7881C6.12182 17.9099 6.19621 18.0205 6.28994 18.1135C6.3829 18.2072 6.4935 18.2816 6.61536 18.3324C6.73722 18.3832 6.86793 18.4093 6.99994 18.4093C7.13195 18.4093 7.26266 18.3832 7.38452 18.3324C7.50638 18.2816 7.61698 18.2072 7.70994 18.1135L11.9999 13.8135L16.2899 18.1135C16.3829 18.2072 16.4935 18.2816 16.6154 18.3324C16.7372 18.3832 16.8679 18.4093 16.9999 18.4093C17.132 18.4093 17.2627 18.3832 17.3845 18.3324C17.5064 18.2816 17.617 18.2072 17.7099 18.1135C17.8037 18.0205 17.8781 17.9099 17.9288 17.7881C17.9796 17.6662 18.0057 17.5355 18.0057 17.4035C18.0057 17.2715 17.9796 17.1408 17.9288 17.0189C17.8781 16.8971 17.8037 16.7865 17.7099 16.6935L13.4099 12.4035Z" fill="black"/>
</svg>
