<svg width="24" height="25" viewBox="0 0 24 25" fill="none" xmlns="http://www.w3.org/2000/svg">
<path d="M20.05 11.4033H3.95C3.42533 11.4033 3 11.8286 3 12.3533V12.4533C3 12.978 3.42533 13.4033 3.95 13.4033H20.05C20.5747 13.4033 21 12.978 21 12.4533V12.3533C21 11.8286 20.5747 11.4033 20.05 11.4033Z" fill="black"/>
<path d="M20.05 16.4033H3.95C3.42533 16.4033 3 16.8287 3 17.3533V17.4533C3 17.978 3.42533 18.4033 3.95 18.4033H20.05C20.5747 18.4033 21 17.978 21 17.4533V17.3533C21 16.8287 20.5747 16.4033 20.05 16.4033Z" fill="black"/>
<path d="M20.05 6.40332H3.95C3.42533 6.40332 3 6.82865 3 7.35332V7.45332C3 7.97799 3.42533 8.40332 3.95 8.40332H20.05C20.5747 8.40332 21 7.97799 21 7.45332V7.35332C21 6.82865 20.5747 6.40332 20.05 6.40332Z" fill="black"/>
</svg>
